<?xml version="1.0" standalone="no"?>
<!DOCTYPE svg PUBLIC "-//W3C//DTD SVG 20010904//EN"
 "http://www.w3.org/TR/2001/REC-SVG-20010904/DTD/svg10.dtd">
<svg version="1.0" xmlns="http://www.w3.org/2000/svg"
 width="133.000000pt" height="133.000000pt" viewBox="0 0 133.000000 133.000000"
 preserveAspectRatio="xMidYMid meet">
<metadata>
Created by potrace 1.11, written by Peter Selinger 2001-2013
</metadata>
<g transform="translate(0.000000,133.000000) scale(0.100000,-0.100000)"
fill="#000000" stroke="none">
<path d="M1017 943 c-15 -18 -101 -187 -126 -250 -7 -18 -28 -41 -46 -51 -33
-20 -57 -73 -36 -80 20 -7 11 -41 -34 -126 -25 -47 -45 -92 -45 -101 0 -16 37
-29 66 -23 12 2 43 51 88 140 62 122 73 137 99 142 17 3 32 4 35 1 5 -4 -26
-77 -90 -209 -37 -79 -37 -86 12 -86 33 0 42 4 49 23 39 98 149 299 161 292 8
-5 61 96 65 125 1 8 22 57 45 108 36 78 41 95 29 103 -28 18 -54 4 -91 -51
-20 -30 -37 -58 -37 -62 -1 -4 -20 -36 -42 -73 -30 -46 -49 -67 -68 -71 -14
-3 -32 -7 -38 -10 -7 -2 -13 2 -13 9 0 12 54 122 96 195 l19 33 -24 20 c-29
24 -53 24 -74 2z"/>
<path d="M753 888 c-18 -9 -23 -19 -23 -52 0 -51 -51 -219 -92 -301 -44 -90
-82 -125 -73 -67 20 125 31 174 51 219 13 28 24 61 24 72 0 22 -34 46 -50 36
-14 -8 -36 -54 -56 -111 -20 -58 -155 -275 -169 -271 -5 2 -11 21 -13 43 -2
28 11 74 48 167 27 71 50 139 50 153 0 36 -36 31 -165 -21 -131 -54 -166 -57
-184 -18 -12 26 -13 27 -26 9 -22 -29 -30 -104 -15 -132 22 -40 44 -38 163 16
61 29 118 54 125 57 22 9 13 -26 -40 -155 -57 -139 -69 -214 -36 -235 22 -14
50 1 122 65 l54 48 7 -30 c7 -33 37 -47 81 -36 34 9 101 72 155 146 24 33 47
60 52 60 8 0 40 65 41 85 1 6 6 19 12 30 12 21 36 149 38 200 1 26 -3 30 -29
32 -16 1 -40 -3 -52 -9z"/>
</g>
</svg>
